<svg xmlns="http://www.w3.org/2000/svg" width="1120" height="166" viewBox="0 0 1120 166" role="img" aria-labelledby="title desc">
<title id="title">AI Carry — your tools change, your progress stays</title>
<desc id="desc">A local collection of readable files remains alongside different Agents. This is a concept illustration, not a compatibility certification.</desc>
<defs><pattern id="grid" width="24" height="24" patternUnits="userSpaceOnUse"><path d="M24 0H0V24" fill="none" stroke="#273b49" stroke-width=".7"/></pattern></defs>
<rect width="1120" height="166" rx="16" fill="#10252f"/>
<rect x="546" width="574" height="166" rx="16" fill="url(#grid)"/>
<path d="M34 42v82" stroke="#b1ef80" stroke-width="5"/>
<g font-family="Segoe UI,Arial,sans-serif">
<text x="57" y="102" font-size="65" font-weight="750" letter-spacing="-3" fill="#fff8ed">AI Carry<tspan fill="#b1ef80">.</tspan></text>
<text x="61" y="133" font-size="12" letter-spacing="3.4" fill="#b9c6c9">LOCAL FILES. LASTING PROGRESS.</text>
<g fill="#172f3b" stroke="#48616b"><rect x="573" y="32" width="168" height="38" rx="9"/><rect x="573" y="96" width="168" height="38" rx="9"/></g>
<text x="657" y="57" text-anchor="middle" font-size="16" fill="#f6f1e8">Codex</text>
<text x="657" y="121" text-anchor="middle" font-size="16" fill="#f6f1e8">Claude Code</text>
<path d="M753 51H791Q801 51 801 63V102Q801 115 791 115H753M801 83H844" fill="none" stroke="#899fa6" stroke-width="1.5"/>
<path d="m837 77 7 6-7 6" fill="none" stroke="#b1ef80" stroke-width="2"/>
<g transform="translate(863 35)"><rect x="9" y="6" width="205" height="104" rx="12" fill="#516e6a"/><rect width="205" height="104" rx="12" fill="#f6f1e8"/><path d="M17 25h33l8 8h129" fill="none" stroke="#10252f" stroke-width="2"/><text x="18" y="61" font-size="20" font-weight="700" fill="#10252f">Your knowledge</text><text x="18" y="85" font-size="12" letter-spacing="1.2" fill="#506268">READ · REUSE · CARRY</text></g>
</g>
</svg>
